<?xml version="1.0" standalone="no"?>
<!DOCTYPE svg PUBLIC "-//W3C//DTD SVG 20010904//EN"
 "http://www.w3.org/TR/2001/REC-SVG-20010904/DTD/svg10.dtd">
<svg version="1.0" xmlns="http://www.w3.org/2000/svg"
 width="660.000000pt" height="566.000000pt" viewBox="0 0 660.000000 566.000000"
 preserveAspectRatio="xMidYMid meet">
<metadata>
Created by potrace 1.16, written by Peter Selinger 2001-2019
</metadata>
<g transform="translate(0.000000,566.000000) scale(0.100000,-0.100000)"
fill="#000000" stroke="none">
<path d="M2778 4916 c-71 -21 -112 -48 -332 -219 -135 -107 -155 -116 -416
-197 -74 -23 -166 -58 -203 -78 -101 -52 -126 -90 -260 -388 -30 -66 -65 -137
-79 -158 -14 -21 -91 -104 -171 -184 -79 -81 -162 -174 -183 -207 l-39 -60 0
-310 0 -310 -49 -150 c-74 -227 -90 -319 -71 -405 10 -47 60 -145 135 -265 97
-156 125 -219 149 -335 11 -58 32 -160 45 -227 44 -221 73 -256 351 -424 85
-50 170 -105 190 -121 19 -16 88 -98 154 -181 65 -84 141 -173 169 -199 85
-79 119 -88 442 -112 107 -8 213 -21 235 -29 22 -8 126 -52 230 -98 278 -121
310 -121 590 8 216 99 229 102 440 118 246 19 280 23 340 42 67 22 147 99 291
284 125 160 138 171 357 304 81 50 170 110 198 134 81 70 103 130 164 455 31
164 45 198 153 374 140 228 163 291 144 400 -6 38 -37 151 -69 253 -65 207
-62 179 -52 579 l4 185 -29 60 c-22 44 -69 100 -191 225 -178 182 -198 211
-294 428 -77 173 -130 254 -194 298 -32 22 -114 54 -255 100 -272 88 -258 81
-457 238 -216 171 -272 195 -423 177 -54 -7 -140 -21 -192 -32 -52 -11 -140
-23 -195 -26 -99 -5 -131 -2 -335 36 -151 27 -236 32 -292 17z m327 -228 c143
-32 369 -32 510 0 139 31 271 40 311 19 17 -9 97 -68 178 -131 211 -165 235
-177 526 -266 74 -23 152 -51 173 -63 41 -23 48 -36 186 -329 71 -153 101
-194 275 -370 127 -128 157 -164 166 -198 8 -31 8 -95 0 -250 -15 -275 -13
-292 88 -610 46 -147 48 -170 19 -232 -13 -29 -55 -102 -92 -163 -132 -214
-151 -260 -184 -435 -35 -188 -52 -263 -67 -307 -18 -49 -45 -70 -242 -188
-178 -107 -232 -151 -330 -275 -167 -211 -215 -263 -255 -276 -20 -7 -119 -18
-220 -24 -264 -15 -329 -31 -542 -130 -134 -63 -208 -90 -242 -90 -37 0 -115
29 -253 92 -216 100 -270 114 -524 128 -195 11 -239 19 -280 51 -15 11 -72 79
-128 151 -174 223 -217 262 -433 388 -49 29 -116 71 -148 93 -53 37 -59 45
-77 106 -10 36 -26 109 -35 161 -44 249 -79 353 -169 493 -18 28 -59 97 -91
152 -69 120 -71 141 -25 290 99 318 93 288 94 445 1 80 -1 211 -4 291 l-5 145
27 36 c15 19 70 77 123 129 179 176 241 260 315 429 77 178 122 260 153 283
34 26 112 55 302 113 170 51 234 86 380 205 39 31 107 83 150 114 l80 57 95
-5 c52 -4 140 -16 195 -29z"/>
<path d="M2738 4617 c-46 -34 -121 -92 -168 -128 -140 -109 -193 -133 -455
-214 -198 -62 -196 -60 -255 -181 -27 -57 -50 -107 -50 -110 0 -4 -28 -63 -62
-132 -62 -124 -63 -125 -239 -307 -139 -144 -178 -190 -183 -217 -3 -19 -2
-97 4 -174 21 -292 13 -364 -69 -619 -65 -201 -66 -209 -29 -280 17 -33 60
-107 96 -165 121 -195 147 -270 203 -575 12 -66 27 -134 34 -150 12 -30 85
-85 205 -154 209 -121 267 -171 414 -361 107 -138 143 -177 177 -195 16 -9 95
-18 215 -25 273 -16 341 -32 547 -129 136 -64 208 -91 241 -91 17 0 83 23 146
51 331 147 348 152 633 169 104 6 198 15 210 19 29 11 89 77 211 231 125 158
182 206 386 331 91 55 175 110 187 122 17 17 29 52 48 152 72 371 75 379 208
600 123 204 130 222 117 282 -11 50 -70 247 -96 318 -29 84 -36 200 -24 422 7
116 9 222 4 235 -4 13 -80 98 -169 189 -171 174 -216 236 -286 396 -19 43 -56
123 -84 178 l-50 100 -70 27 c-38 15 -110 39 -160 53 -231 69 -292 100 -469
239 -195 153 -201 156 -269 156 -32 0 -90 -7 -130 -15 -166 -33 -267 -47 -347
-47 -80 0 -181 14 -347 47 -40 8 -99 15 -132 15 -58 0 -63 -2 -143 -63z m694
-557 c61 -63 69 -83 41 -98 -25 -15 -8 -40 29 -44 l33 -3 3 -70 3 -70 -41 -40
c-32 -32 -40 -46 -40 -76 0 -69 1 -69 -129 -69 -78 0 -121 4 -129 12 -8 8 -12
50 -12 121 0 97 -2 111 -20 125 -19 16 -20 22 -10 91 6 41 15 80 21 88 18 21
39 15 39 -12 l0 -25 110 0 c91 0 110 3 110 15 0 14 -22 20 -63 17 -10 -1 -20
4 -23 12 -4 10 -18 12 -51 8 -44 -5 -45 -4 -38 19 10 34 42 59 78 59 25 0 43
-12 89 -60z m-231 -1347 c35 -21 69 -86 69 -133 0 -47 -34 -112 -69 -133 -43
-25 -120 -22 -162 6 -81 54 -77 202 6 257 38 25 116 27 156 3z m569 -44 l0
-59 -32 0 c-23 0 -39 8 -54 28 -19 22 -26 25 -41 16 -27 -17 -38 -66 -22 -99
23 -46 43 -53 79 -26 l32 23 24 -23 24 -23 -22 -23 c-49 -53 -151 -52 -204 1
-58 58 -53 158 11 214 32 29 39 31 120 31 l85 -1 0 -59z m-2123 35 c3 -9 1
-24 -5 -34 -8 -13 -6 -29 6 -64 9 -25 20 -46 23 -46 4 0 16 23 27 50 12 28 16
50 11 50 -6 0 -9 12 -7 28 3 26 5 27 58 27 63 0 75 -17 42 -59 -10 -13 -36
-65 -56 -114 -31 -73 -43 -92 -63 -97 -48 -12 -62 3 -113 111 -27 57 -53 104
-59 104 -6 0 -11 14 -11 30 l0 30 70 0 c56 0 72 -3 77 -16z m370 0 c3 -8 0
-25 -6 -38 -18 -32 -10 -136 11 -149 12 -8 21 -7 32 2 19 16 22 121 4 150 -23
37 -4 52 59 49 55 -3 58 -4 55 -28 -1 -14 -7 -26 -12 -28 -6 -2 -10 -37 -10
-77 0 -64 -3 -77 -25 -103 -30 -36 -79 -47 -135 -32 -58 16 -80 55 -80 143 0
38 -4 67 -10 67 -11 0 -14 43 -3 53 3 4 30 7 60 7 39 0 55 -4 60 -16z m358
-31 c1 -52 18 -75 34 -44 9 15 8 25 0 39 -23 37 -5 53 53 50 43 -2 54 -7 56
-22 3 -11 -3 -25 -11 -31 -21 -15 -87 -126 -87 -146 0 -9 7 -19 15 -23 20 -7
19 -42 -1 -50 -9 -3 -38 -6 -65 -6 -54 0 -72 17 -51 51 7 10 12 28 12 39 0 23
-66 130 -80 130 -11 0 -14 43 -3 54 4 4 34 6 68 4 l60 -3 0 -42z m343 15 c2
-16 -1 -28 -7 -28 -6 0 -11 -12 -11 -26 l0 -25 31 22 c21 14 27 24 19 29 -6 4
-10 18 -8 31 3 22 7 24 68 24 59 0 65 -2 68 -22 2 -16 -5 -26 -26 -37 -53 -28
-55 -37 -15 -99 20 -31 42 -57 50 -57 10 0 13 -9 11 -27 -3 -26 -6 -28 -57
-31 -78 -4 -101 3 -101 33 0 14 4 25 10 25 6 0 5 10 -2 25 -7 15 -18 24 -27
23 -18 -4 -28 -48 -11 -48 6 0 10 -12 8 -27 -3 -27 -5 -28 -63 -28 -58 0 -60
1 -63 28 -2 15 1 27 7 27 7 0 11 30 11 80 0 47 -4 80 -10 80 -11 0 -14 43 -3
54 4 4 32 6 63 4 52 -3 55 -5 58 -30z m1350 12 c26 -16 32 -26 32 -55 0 -22
-8 -43 -20 -55 -17 -17 -18 -21 -6 -26 9 -3 18 -15 21 -25 4 -11 14 -18 23
-17 12 2 18 -5 20 -24 4 -36 -35 -63 -77 -53 -36 8 -51 25 -60 67 -4 17 -12
33 -19 36 -17 5 -15 -38 2 -52 10 -8 12 -18 5 -33 -7 -19 -16 -23 -53 -23 -24
0 -51 3 -60 6 -17 7 -22 54 -6 54 6 0 10 33 10 80 0 47 -4 80 -10 80 -5 0 -10
14 -10 30 l0 30 88 0 c69 0 94 -4 120 -20z m369 8 c6 -7 23 -53 38 -103 16
-51 36 -96 46 -104 26 -19 24 -49 -4 -56 -13 -4 -50 -5 -82 -3 -54 3 -60 5
-63 26 -3 17 2 25 17 29 17 4 19 8 10 19 -12 15 -37 18 -63 8 -20 -8 -21 -24
-1 -24 9 0 15 -9 15 -25 0 -29 -25 -38 -86 -33 -32 2 -40 7 -42 27 -2 14 2 28
11 33 20 11 59 141 51 172 -3 14 -3 30 1 35 9 16 140 14 152 -1z m421 -30 c3
-37 3 -38 -32 -38 -20 0 -36 5 -36 10 0 6 -14 10 -31 10 -28 0 -30 -2 -27 -32
3 -30 6 -33 41 -36 31 -3 37 -7 37 -27 0 -20 -6 -24 -37 -27 -27 -2 -39 -8
-41 -20 -2 -13 3 -18 18 -18 17 0 21 -5 18 -27 -3 -28 -4 -28 -73 -28 -69 0
-70 0 -73 28 -2 15 1 27 7 27 15 0 14 145 -1 169 -6 10 -8 26 -5 35 6 14 22
16 119 14 l113 -3 3 -37z m350 -15 l3 -53 -30 0 c-26 0 -31 4 -31 25 0 16 -6
25 -15 25 -12 0 -15 -16 -15 -80 0 -66 3 -80 16 -80 11 0 14 -8 12 -27 -3 -26
-7 -28 -52 -31 -72 -5 -96 4 -96 33 0 16 6 25 15 25 12 0 15 16 15 80 0 64 -3
80 -15 80 -9 0 -15 -9 -15 -25 0 -21 -5 -25 -30 -25 -29 0 -30 1 -30 48 0 27
3 52 7 56 4 3 63 5 132 4 l126 -3 3 -52z m-1828 -1259 c9 -25 9 -43 1 -66 -15
-41 -14 -42 11 -24 12 9 35 16 50 16 23 0 28 -4 28 -24 0 -14 -12 -38 -26 -55
l-26 -31 24 0 c54 -1 60 -35 13 -80 -20 -18 -37 -23 -98 -25 -86 -3 -112 6
-144 54 -27 40 -23 51 19 51 l31 0 -21 23 c-12 13 -25 37 -28 55 -6 30 -5 32
23 32 15 0 38 -6 49 -14 20 -14 20 -13 16 37 -3 43 0 57 18 80 26 33 43 25 60
-29z m476 14 c16 -30 15 -69 -2 -113 -8 -19 -7 -19 10 -3 20 21 60 33 81 25
12 -5 12 -12 4 -39 -6 -18 -20 -40 -30 -49 -18 -16 -17 -17 16 -23 40 -8 45
-28 17 -62 -23 -29 -54 -44 -91 -44 -28 0 -31 -3 -31 -30 l0 -29 37 25 c43 29
96 30 101 1 2 -9 -10 -31 -27 -48 -17 -17 -31 -32 -31 -35 0 -2 11 -4 25 -4
33 0 41 -22 19 -55 -25 -38 -46 -46 -125 -46 -80 0 -109 13 -135 62 -17 35 -9
49 30 49 18 0 17 2 -6 28 -14 15 -29 37 -32 49 -6 19 -2 23 31 29 33 6 35 8
17 16 -26 12 -58 64 -50 84 3 7 17 14 30 14 l25 0 -25 37 c-13 20 -23 44 -22
52 5 24 48 25 79 2 l29 -21 -10 25 c-15 40 -12 77 10 113 23 37 33 35 56 -10z
m-951 2 c17 -34 19 -73 5 -101 -13 -23 -12 -23 28 -3 46 23 68 15 64 -21 -2
-17 -12 -39 -23 -51 -26 -28 -24 -34 9 -34 39 0 44 -8 27 -41 -25 -47 -52 -59
-133 -59 -85 0 -124 16 -142 59 -15 36 -7 51 27 51 l26 0 -21 23 c-12 13 -25
37 -28 55 -6 29 -4 32 17 32 13 -1 35 -7 49 -15 34 -20 43 -18 30 4 -15 30
-12 62 10 99 24 40 35 40 55 2z m-76 -337 c20 -15 39 -32 43 -37 4 -7 15 -2
29 12 27 29 67 45 96 37 31 -7 29 -28 -6 -67 -28 -31 -29 -31 -110 -30 l-82 3
40 -37 41 -36 31 32 c26 25 38 30 68 28 46 -4 51 -26 14 -68 -29 -32 -31 -32
-114 -31 -80 1 -85 2 -111 31 -36 39 -36 66 -2 74 l27 7 -27 28 c-33 34 -34
68 -3 74 12 2 24 5 26 6 2 0 20 -11 40 -26z m476 -3 c35 -36 39 -37 77 -5 30
25 91 35 103 15 8 -12 -21 -67 -41 -78 -14 -8 -11 -11 15 -20 40 -14 39 -26
-3 -68 -33 -33 -37 -34 -108 -34 -82 0 -108 12 -133 61 -20 37 -13 49 28 49
31 0 31 0 9 16 -26 18 -55 71 -47 84 14 22 71 10 100 -20z"/>
<path d="M6280 25 l0 -25 160 0 160 0 0 25 0 25 -160 0 -160 0 0 -25z"/>
</g>
</svg>
